<?xml version="1.0" encoding="UTF-8"?><svg id="Layer_1" xmlns="http://www.w3.org/2000/svg" viewBox="0 0 480 110.53"><path d="M88.43,11.05c0-6.08-4.97-11.05-11.05-11.05h-44.21c-6.08,0-11.05,4.97-11.05,11.05s-4.97,11.05-11.05,11.05S0,27.08,0,33.16v22.11c0,6.08,4.97,11.05,11.05,11.05s11.05-4.97,11.05-11.05v-22.11c0-6.08,4.97-11.05,11.05-11.05h44.21c6.08,0,11.05,4.97,11.05,11.05v66.32c0,6.08,4.97,11.05,11.05,11.05s11.05-4.97,11.05-11.05V33.16c0-6.08-4.97-11.05-11.05-11.05s-11.05-4.97-11.05-11.05Z" style="fill:#fff; fill-rule:evenodd;"/><path d="M156.32,0c-6.08,0-11.05,4.97-11.05,11.05s-4.97,11.05-11.05,11.05-11.05,4.97-11.05,11.05v44.21c0,6.08,4.97,11.05,11.05,11.05s11.05,4.97,11.05,11.05,4.97,11.05,11.05,11.05h22.11c6.08,0,11.05-4.97,11.05-11.05s-4.97-11.05-11.05-11.05h-22.11c-6.08,0-11.05-4.97-11.05-11.05v-44.21c0-6.08,4.97-11.05,11.05-11.05h44.21c6.08,0,11.05,4.97,11.05,11.05v66.32c0,6.08,4.97,11.05,11.05,11.05s11.05-4.97,11.05-11.05V33.16c0-6.08-4.97-11.05-11.05-11.05s-11.05-4.97-11.05-11.05-4.97-11.05-11.05-11.05h-44.21Z" style="fill:#fff; fill-rule:evenodd;"/><path d="M268.42,11.05c0,6.08-4.97,11.05-11.05,11.05s-11.05,4.97-11.05,11.05v66.32c0,6.08,4.97,11.05,11.05,11.05s11.05-4.97,11.05-11.05V33.16c0-6.08,4.97-11.05,11.05-11.05h44.21c6.08,0,11.05,4.97,11.05,11.05v66.32c0,6.08,4.97,11.05,11.05,11.05s11.05-4.97,11.05-11.05V33.16c0-6.08-4.97-11.05-11.05-11.05s-11.05-4.97-11.05-11.05-4.97-11.05-11.05-11.05h-44.21c-6.08,0-11.05,4.97-11.05,11.05Z" style="fill:#fff; fill-rule:evenodd;"/><path d="M391.58,11.05c0,6.08-4.97,11.05-11.05,11.05s-11.05,4.97-11.05,11.05v44.21c0,6.08,4.97,11.05,11.05,11.05s11.05,4.97,11.05,11.05,4.97,11.05,11.05,11.05h44.21c6.08,0,11.05-4.97,11.05-11.05s4.97-11.05,11.05-11.05,11.05-4.97,11.05-11.05v-44.21c0-6.08-4.97-11.05-11.05-11.05s-11.05-4.97-11.05-11.05-4.97-11.05-11.05-11.05h-44.21c-6.08,0-11.05,4.97-11.05,11.05h0ZM446.84,22.11c6.08,0,11.05,4.97,11.05,11.05v44.21c0,6.08-4.97,11.05-11.05,11.05h-44.21c-6.08,0-11.05-4.97-11.05-11.05v-44.21c0-6.08,4.97-11.05,11.05-11.05h44.21Z" style="fill:#fff; fill-rule:evenodd;"/><path d="M22.11,99.48c0-6.08-4.97-11.05-11.05-11.05S0,93.4,0,99.48s4.97,11.05,11.05,11.05,11.05-4.97,11.05-11.05Z" style="fill:#22D3EE; fill-rule:evenodd;"/></svg>